<svg xmlns="http://www.w3.org/2000/svg" width="16" height="16" viewBox="0 0 16 16">
  <path
    id="path"
    d="M10,18a8,8,0,1,1,8-8A8,8,0,0,1,10,18Zm0-1.455A6.545,6.545,0,1,0,3.455,10,6.545,6.545,0,0,0,10,16.545ZM7.982,7.483l5.091-1.455a.727.727,0,0,1,.9.9l-1.455,5.091a.727.727,0,0,1-.5.5L6.927,13.972a.727.727,0,0,1-.9-.9L7.483,7.982A.727.727,0,0,1,7.982,7.483Zm-.2,4.731,3.444-.984.984-3.444L8.77,8.77ZM10,10.727A.727.727,0,1,1,10.727,10,.727.727,0,0,1,10,10.727Z"
    transform="translate(-2 -2)"
    fill="#fff"
  />
</svg>
