<svg xmlns="http://www.w3.org/2000/svg" xmlns:xlink="http://www.w3.org/1999/xlink" viewBox="0 0 38.39 38.39"><defs><style>.cls-1{fill:#fff;}.cls-2{clip-path:url(#clip-path);}.cls-3{clip-path:url(#clip-path-2);}</style><clipPath id="clip-path"><path class="cls-1" d="M30.07,23.55l-.12.38-2.18-.25-1.28,1.79,1,1.79-.38.38-1.79-1-1.79,1.15L23.8,30l-.38.13-1.28-1.67L20,28.8l-.51,2h-.51l-.51-2.05-2.18-.38L15,30.2l-.38-.13.26-2.17-1.8-1.28-1.92,1.15-.38-.38,1.15-1.92-1.15-1.79-2.17.25-.13-.38,1.79-1.41L9.86,20l-2.18-.52v-.51l2.18-.51.38-2.05L8.45,15l.12-.38,2.3.38L12,13.18l-1.16-2,.39-.38,1.41.77.64.38,1.92-1.15L15,8.45l.38-.13,1.41,1.79,2-.38.64-2.18H20l.52,2.18,2.17.38,1.28-1.79.39.13-.39,2.17,1.79,1.16,1.92-1,.39.39-1.15,1.92,1.28,1.79,2.17-.26.13.39-1.79,1.28.38,2.17,2.05.51v.51L29.05,20l-.38,2.18ZM32,20.35V18.17l-2.17-.64-.13-.9,1.79-1.41-.77-1.92-2.3.39-.51-.77L29.05,11,27.52,9.46l-2.05,1.16-.77-.52.39-2.3L23.17,7,21.76,9,21,8.83l-.64-2.3H18.17l-.64,2.3L16.77,9,15.36,7l-1.92.76.25,2.44-.76.51-2-1.28L9.34,11l1.28,2.05-.38.64-2.3-.38-.77,1.92,1.92,1.41L9,17.4,6.66,18v2.18l2.3.64.13.9L7.17,23.17l.77,1.92,2.3-.39.51.77L9.6,27.52l1.53,1.54,2-1.16.77.52-.26,2.3,1.92.76L17,29.69l.9.13L18.56,32h2.18l.51-2.18.9-.13,1.41,1.79,1.92-.76-.38-2.3.64-.52,1.92,1.16,1.53-1.54L28,25.6l.51-.77,2.3.39.77-1.92-1.79-1.41L30,21Z"/></clipPath><clipPath id="clip-path-2"><path class="cls-1" d="M24.83,24.06l-5-5,1.92-6.91A7.93,7.93,0,0,1,24.57,14a7.48,7.48,0,0,1,2.18,5.25A8.22,8.22,0,0,1,24.83,24.06ZM19.2,26.62A7.24,7.24,0,0,1,14,24.44a7.93,7.93,0,0,1-1.79-2.81l6.91-1.79,5,5a7.59,7.59,0,0,1-4.86,1.79ZM11.77,19.2A7.28,7.28,0,0,1,14,14a7.48,7.48,0,0,1,5.25-2.18,5.19,5.19,0,0,1,1.41.13l-1.8,6.91L11.9,20.73A6.55,6.55,0,0,1,11.77,19.2Zm7.43-8.58a8.58,8.58,0,1,0,8.57,8.58,8.58,8.58,0,0,0-8.57-8.58Z"/></clipPath></defs><title>settings-icon_1</title><g id="Layer_2" data-name="Layer 2"><g id="Layer_1-2" data-name="Layer 1"><g id="Group_162" data-name="Group 162"><g id="group"><path class="cls-1" d="M30.07,23.55l-.12.38-2.18-.25-1.28,1.79,1,1.79-.38.38-1.79-1-1.79,1.15L23.8,30l-.38.13-1.28-1.67L20,28.8l-.51,2h-.51l-.51-2.05-2.18-.38L15,30.2l-.38-.13.26-2.17-1.8-1.28-1.92,1.15-.38-.38,1.15-1.92-1.15-1.79-2.17.25-.13-.38,1.79-1.41L9.86,20l-2.18-.52v-.51l2.18-.51.38-2.05L8.45,15l.12-.38,2.3.38L12,13.18l-1.16-2,.39-.38,1.41.77.64.38,1.92-1.15L15,8.45l.38-.13,1.41,1.79,2-.38.64-2.18H20l.52,2.18,2.17.38,1.28-1.79.39.13-.39,2.17,1.79,1.16,1.92-1,.39.39-1.15,1.92,1.28,1.79,2.17-.26.13.39-1.79,1.28.38,2.17,2.05.51v.51L29.05,20l-.38,2.18ZM32,20.35V18.17l-2.17-.64-.13-.9,1.79-1.41-.77-1.92-2.3.39-.51-.77L29.05,11,27.52,9.46l-2.05,1.16-.77-.52.39-2.3L23.17,7,21.76,9,21,8.83l-.64-2.3H18.17l-.64,2.3L16.77,9,15.36,7l-1.92.76.25,2.44-.76.51-2-1.28L9.34,11l1.28,2.05-.38.64-2.3-.38-.77,1.92,1.92,1.41L9,17.4,6.66,18v2.18l2.3.64.13.9L7.17,23.17l.77,1.92,2.3-.39.51.77L9.6,27.52l1.53,1.54,2-1.16.77.52-.26,2.3,1.92.76L17,29.69l.9.13L18.56,32h2.18l.51-2.18.9-.13,1.41,1.79,1.92-.76-.38-2.3.64-.52,1.92,1.16,1.53-1.54L28,25.6l.51-.77,2.3.39.77-1.92-1.79-1.41L30,21Z"/><g class="cls-2"><g id="group-2"><rect id="rectangle" class="cls-1" width="38.39" height="38.39"/></g></g></g><g id="group-3"><path class="cls-1" d="M24.83,24.06l-5-5,1.92-6.91A7.93,7.93,0,0,1,24.57,14a7.48,7.48,0,0,1,2.18,5.25A8.22,8.22,0,0,1,24.83,24.06ZM19.2,26.62A7.24,7.24,0,0,1,14,24.44a7.93,7.93,0,0,1-1.79-2.81l6.91-1.79,5,5a7.59,7.59,0,0,1-4.86,1.79ZM11.77,19.2A7.28,7.28,0,0,1,14,14a7.48,7.48,0,0,1,5.25-2.18,5.19,5.19,0,0,1,1.41.13l-1.8,6.91L11.9,20.73A6.55,6.55,0,0,1,11.77,19.2Zm7.43-8.58a8.58,8.58,0,1,0,8.57,8.58,8.58,8.58,0,0,0-8.57-8.58Z"/><g class="cls-3"><g id="group-4"><rect id="rectangle-2" class="cls-1" x="4.22" y="4.22" width="29.82" height="29.82"/></g></g></g></g><path id="path-3" class="cls-1" d="M30.07,23.55l-.12.38-2.18-.25-1.28,1.79,1,1.79-.38.38-1.79-1-1.79,1.15L23.8,30l-.38.13-1.28-1.67L20,28.8l-.51,2h-.51l-.51-2.05-2.18-.38L15,30.2l-.38-.13.26-2.17-1.8-1.28-1.92,1.15-.38-.38,1.15-1.92-1.15-1.79-2.17.25-.13-.38,1.79-1.41L9.86,20l-2.18-.52v-.51l2.18-.51.38-2.05L8.45,15l.12-.38,2.3.38L12,13.18l-1.16-2,.39-.38,1.41.77.64.38,1.92-1.15L15,8.45l.38-.13,1.41,1.79,2-.38.64-2.18H20l.52,2.18,2.17.38,1.28-1.79.39.13-.39,2.17,1.79,1.16,1.92-1,.39.39-1.15,1.92,1.28,1.79,2.17-.26.13.39-1.79,1.28.38,2.17,2.05.51v.51L29.05,20l-.38,2.18ZM32,20.35V18.17l-2.17-.64-.13-.9,1.79-1.41-.77-1.92-2.3.39-.51-.77L29.05,11,27.52,9.46l-2.05,1.16-.77-.52.39-2.3L23.17,7,21.76,9,21,8.83l-.64-2.3H18.17l-.64,2.3L16.77,9,15.36,7l-1.92.76.25,2.44-.76.51-2-1.28L9.34,11l1.28,2.05-.38.64-2.3-.38-.77,1.92,1.92,1.41L9,17.4,6.66,18v2.18l2.3.64.13.9L7.17,23.17l.77,1.92,2.3-.39.51.77L9.6,27.52l1.53,1.54,2-1.16.77.52-.26,2.3,1.92.76L17,29.69l.9.13L18.56,32h2.18l.51-2.18.9-.13,1.41,1.79,1.92-.76-.38-2.3.64-.52,1.92,1.16,1.53-1.54L28,25.6l.51-.77,2.3.39.77-1.92-1.79-1.41L30,21Z"/></g></g></svg>