<svg id="Layer_1" data-name="Layer 1" xmlns="http://www.w3.org/2000/svg" viewBox="0 0 283.36 433.32"><defs><style>.cls-1{fill:#fff;}.cls-2{fill:none;}.cls-3{fill:#79db85;}</style></defs><title>cupsave-logo</title><path class="cls-1" d="M144.41,112.54c22.38,0,42,.92,61.63,2.41a345.26,345.26,0,0,1,43.56,5.61c9.2,1.89,18.39,4,26.64,8.79a18.73,18.73,0,0,1,4.32,3.36c3.75,4.06,3.75,8.39-.11,12.4-3.08,3.19-7,5-11.06,6.57a77.88,77.88,0,0,1-7.58,2.46c-1.44.41-2.21,1.2-2,2.67a10.16,10.16,0,0,1-3.19,9.24,3.79,3.79,0,0,0-1,2.51q-1.2,11.55-2.41,23.11-2,19-4.1,38c-.9,8.37-1.76,16.73-2.66,25.09q-2,18.75-4,37.5-1.33,12.42-2.66,24.84-2.08,19.25-4.15,38.5-1.32,12.29-2.61,24.59c-.85,8.12-1.38,16.28-2.6,24.34a34.32,34.32,0,0,1-7,15.56c-2,2.6-5.11,3.38-8,4.45-13.29,5-27.18,7-41.25,8.07a283.13,283.13,0,0,1-41.7-.11c-14.8-1.05-29.52-2.65-43.82-6.87-3.26-1-6.4-2.33-9.57-3.58a8.64,8.64,0,0,1-4.85-4.72c-1.52-3.32-3.25-6.55-5.09-9.71-1.43-2.48-1.69-5.22-2.08-7.9-1.35-9.39-2.52-18.81-3.81-28.21s-2.67-18.78-4-28.18-2.54-18.64-3.82-28c-1.33-9.65-2.7-19.29-4-28.93-1.29-9.32-2.54-18.64-3.82-28-1.33-9.65-2.69-19.29-4-28.94q-1.93-14.1-3.85-28.2c-1.32-9.56-2.75-19.11-3.94-28.7-.46-3.73-1.2-7.13-4.3-9.66-1.29-1.05-.89-2.84-.9-4.27-.05-3.9-1.63-6.06-5.62-7.12a25.08,25.08,0,0,1-10.37-5.79c-4.69-4.26-4.73-9.58,0-13.82,3.91-3.54,8.7-5.5,13.62-7.09,13.77-4.45,28-6.51,42.31-8.13,12.76-1.44,25.53-2.53,38.35-3.08S134.35,112.26,144.41,112.54ZM27.33,139c3.43,2,7.29,2.78,11.07,3.6a304.93,304.93,0,0,0,41,5.6c19,1.52,38.06,2.42,57.14,2.6,39.44.36,78.78-.45,117.66-8A48.13,48.13,0,0,0,266.61,139a2.46,2.46,0,0,0-1.77-1.71c-2.38-.73-4.73-1.6-7.16-2.17a280.79,280.79,0,0,0-36.49-5.58c-21.14-2.09-42.37-3-63.61-3.21-34.42-.35-68.79.78-103,5.41-8.47,1.16-16.94,2.54-25.07,5.43C28.61,137.52,27.66,137.79,27.33,139Z"/><path class="cls-1" d="M133.12,61.13C112.28,66.78,91.21,71.42,70,75.51c-14.38,2.77-28.86,5.11-43.52,5.94-6.87.38-13.79.67-20.55-1.27a16.36,16.36,0,0,1-2.34-.85C0,77.57-1,74.58,1.12,71.11c2.43-4,6.3-6.35,10.15-8.64,12.06-7.18,25-12.41,38.07-17.43,27.25-10.48,55.17-18.82,83.38-26.21C149.8,14.35,167,10.37,184.36,7A399,399,0,0,1,224.59.89c9.09-.81,18.24-1.7,27.3.47a15.12,15.12,0,0,1,3.48,1.32c3.26,1.76,4.07,4.82,2.1,8-2.22,3.57-5.66,5.84-9.12,8-11.4,7-23.69,12.07-36.1,16.92C186.38,45.66,159.85,53.71,133.12,61.13ZM129,31.54c-13.46,3.74-26.24,7.52-38.37,13.15a33.55,33.55,0,0,0-7.47,4.49c-1.33,1.1-2.58,2.44-2.11,4.48s2.19,2.6,3.91,3a18,18,0,0,0,3.45.38c7.31.3,14.46-1,21.52-2.51,12.23-2.59,24.3-5.89,36.22-9.68A167.42,167.42,0,0,0,166.35,37,30.61,30.61,0,0,0,174,32.34c1.35-1.2,2.44-2.61,1.87-4.58S173.71,25.36,172,25c-4.14-.85-8.3-.43-12.42.05C149,26.33,138.67,29.09,129,31.54Z"/><path class="cls-1" d="M263.64,19.23c1.33,5,2.65,9.84,3.94,14.73.29,1.12-.49,1.61-1.27,2.18a136.71,136.71,0,0,1-17.13,10.17c-9.21,4.84-18.71,9.07-28.35,13-7.47,3-15,6-22.63,8.63C175.35,75.79,152.29,83,128.81,88.72,110.44,93.2,92,97.17,73.28,100.2q-23.79,3.89-47.81,5.9c-5,.41-10,.48-14.94.79-1.41.09-2.22-.35-2.57-1.72Q6.25,98.39,4.5,91.61c-.43-1.66.39-2.11,1.87-2,11.92,1.22,23.74,0,35.54-1.57C85.57,82.37,128,71.34,170.25,59.19A473.44,473.44,0,0,0,216,43.36c13-5.21,25.71-11,37.71-18.19,2.41-1.46,4.67-3.17,7-4.77A4.63,4.63,0,0,1,263.64,19.23Z"/><path class="cls-2" d="M129,31.54c9.72-2.45,20-5.21,30.65-6.47,4.12-.48,8.28-.9,12.42-.05,1.69.34,3.29.88,3.84,2.74s-.52,3.38-1.87,4.58A30.61,30.61,0,0,1,166.35,37a167.42,167.42,0,0,1-20.25,7.84c-11.92,3.79-24,7.09-36.22,9.68C102.82,56,95.67,57.34,88.36,57a18,18,0,0,1-3.45-.38c-1.72-.4-3.44-.91-3.91-3s.78-3.38,2.11-4.48a33.55,33.55,0,0,1,7.47-4.49C102.71,39.06,115.49,35.28,129,31.54Zm.24,2.64A250.59,250.59,0,0,0,99,43.83c-4.84,2-9.77,3.85-14,7.08-.74.57-1.5,1.2-1.28,2.22s1.2,1,2,1.16c4.33.79,8.67.22,12.91-.44A294.25,294.25,0,0,0,157.4,38.06c4.8-1.82,9.63-3.73,13.85-6.8,1-.69,2.14-1.33,1.82-2.68s-1.87-1.26-2.93-1.36a50.49,50.49,0,0,0-11.19.5C148.85,29,139,31.6,129.19,34.18Z"/><path class="cls-1" d="M129.19,34.18C139,31.6,148.85,29,159,27.72a50.49,50.49,0,0,1,11.19-.5c1.06.1,2.59-.1,2.93,1.36s-.86,2-1.82,2.68c-4.22,3.07-9.05,5-13.85,6.8A294.25,294.25,0,0,1,98.65,53.85c-4.24.66-8.58,1.23-12.91.44-.81-.15-1.8-.16-2-1.16s.54-1.65,1.28-2.22c4.22-3.23,9.15-5.13,14-7.08A250.59,250.59,0,0,1,129.19,34.18Z"/><path class="cls-1" d="M28.16,137.08"/><path class="cls-3" d="M185.15,206a269.79,269.79,0,0,0-75.83,0C96.74,232.15,84.26,257.44,72,279.17c12.29,21.73,24.77,47,37.35,73.21a269.79,269.79,0,0,0,75.83,0c12.58-26.19,25.06-51.48,37.35-73.21C210.21,257.44,197.73,232.15,185.15,206Z"/><path class="cls-1" d="M130.16,254.47a25.77,25.77,0,0,1,7,.82,31.37,31.37,0,0,1,7.41,3.14v8.82a31.83,31.83,0,0,0-7.18-3.68,20.35,20.35,0,0,0-6.88-1.07,15.73,15.73,0,0,0-8.08,2.24,14.87,14.87,0,0,0-5.6,6,19.11,19.11,0,0,0,0,17,14.57,14.57,0,0,0,5.58,5.93,16,16,0,0,0,8.11,2.21,18.75,18.75,0,0,0,6.61-1.07,44.42,44.42,0,0,0,7.93-4.09v8.81a32.77,32.77,0,0,1-7.53,3.46,26.71,26.71,0,0,1-8,.9,23.45,23.45,0,0,1-11.86-3.33,22.06,22.06,0,0,1-8.19-8.79,25.5,25.5,0,0,1-3-12.14,26.35,26.35,0,0,1,3.06-12.7,23,23,0,0,1,8.44-9A24,24,0,0,1,130.16,254.47Z"/><path class="cls-1" d="M174.83,254.76a23,23,0,0,1,11.77,3.89v8c-4.33-3-8.17-4.63-11.53-4.71a7.41,7.41,0,0,0-4.79,1.25,4.28,4.28,0,0,0-1.72,3.59c0,1.81,1.07,3.5,3.21,5a77.78,77.78,0,0,0,6.93,3.87,20.76,20.76,0,0,1,7.42,6.06,13.6,13.6,0,0,1,2.27,7.91,13.25,13.25,0,0,1-3.87,9.82,14.38,14.38,0,0,1-10.05,4.1,20.22,20.22,0,0,1-6.92-.81A26.64,26.64,0,0,1,161,299.4v-9.19c4.49,4.25,8.72,6.3,12.68,6.21a7.65,7.65,0,0,0,4.8-1.58,4.81,4.81,0,0,0,1.83-3.9,6.09,6.09,0,0,0-3.18-5.3q-2.64-1.61-6.81-3.88a20.21,20.21,0,0,1-7.41-6,13.52,13.52,0,0,1-2.45-8,12.28,12.28,0,0,1,3.94-9.63Q168.37,254.54,174.83,254.76Z"/></svg>